# AST/ASF file generated using VICON BodyLanguage
# -----------------------------------------------
:version 1.10
:name VICON
:units
  mass 1.0
  length 0.45
  angle deg
:documentation
   .ast/.asf automatically generated from VICON data using
   VICON BodyBuilder and BodyLanguage model FoxedUp or BRILLIANT.MOD
:root
   order TX TY TZ RX RY RZ
   axis XYZ
   position 0 0 0  
   orientation 0 0 0 
:bonedata
  begin
     id 1 
     name lhipjoint
     direction 0.567149 -0.783011 0.255413 
     length 2.28399 
     axis 0 0 0  XYZ
  end
  begin
     id 2 
     name lfemur
     direction 0.34202 -0.939693 0  
     length 7.34031  
     axis 0 0 20  XYZ
    dof rx ry rz
    limits (-160.0 20.0)
           (-70.0 70.0)
           (-60.0 70.0)
  end
  begin
     id 3 
     name ltibia
     direction 0.34202 -0.939693 0   
     length 6.9833   
     axis 0 0 20   XYZ
    dof rx
    limits (-10.0 170.0)
  end
  begin
     id 4 
     name lfoot
     direction 0.136498 -0.375025 0.91691   
     length 2.33665   
     axis -90 7.62852e-016 20   XYZ
    dof rx rz
    limits (-45.0 90.0)
           (-70.0 20.0)
  end
  begin
     id 5 
     name ltoes
     direction 1.5367e-011 -4.21617e-011 1   
     length 1.15039   
     axis -90 7.62852e-016 20   XYZ
    dof rx
    limits (-90.0 20.0)
  end
  begin
     id 6 
     name rhipjoint
     direction -0.602854 -0.758518 0.247423   
     length 2.35775  
     axis 0 0 0  XYZ 
  end
  begin
     id 7 
     name rfemur
     direction -0.34202 -0.939693 0   
     length 7.43932   
     axis 0 0 -20   XYZ
    dof rx ry rz
    limits (-160.0 20.0)
           (-70.0 70.0)
           (-70.0 60.0)
  end
  begin
     id 8 
     name rtibia
     direction -0.34202 -0.939693 0   
     length 7.11893   
     axis 0 0 -20   XYZ
    dof rx
    limits (-10.0 170.0)
 end
 begin
     id 9 
     name rfoot
     direction -0.131771 -0.362037 0.922803   
     length 2.53019  
     axis -90 -7.62852e-016 -20   XYZ
    dof rx rz
    limits (-45.0 90.0)
           (-20.0 70.0)
  end
  begin
     id 10 
     name rtoes
     direction -1.53733e-011 -4.21932e-011 1   
     length 1.24596   
     axis -90 -7.62852e-016 -20   XYZ
    dof rx
    limits (-90.0 20.0)
  end
  begin
     id 11 
     name lowerback
     direction 0.0235427 0.999023 -0.0374125   
     length 2.21768   
     axis 0 0 0   XYZ
    dof rx ry rz
    limits (-20.0 45.0)
           (-30.0 30.0)
           (-30.0 30.0)
  end
  begin
     id 12 
     name upperback
     direction 0.0302156 0.996818 -0.073759   
     length 2.20352   
     axis 0 0 0   XYZ
    dof rx ry rz
    limits (-20.0 45.0)
           (-30.0 30.0)
           (-30.0 30.0)
  end
  begin
     id 13 
     name thorax
     direction 0.0187169 0.998235 -0.0563532   
     length 2.22103   
     axis 0 0 0   XYZ
    dof rx ry rz
    limits (-20.0 45.0)
           (-30.0 30.0)
           (-30.0 30.0)
  end
  begin
     id 14 
     name lowerneck
     direction -0.119528 0.987423 0.103481   
     length 1.72948   
     axis 0 0 0   XYZ
    dof rx ry rz
    limits (-20.0 45.0)
           (-30.0 30.0)
           (-30.0 30.0)
  end
  begin
     id 15 
     name upperneck
     direction 0.248049 0.963095 -0.104496   
     length 1.74979   
     axis 0 0 0   XYZ
    dof rx ry rz
    limits (-20.0 45.0)
           (-30.0 30.0)
           (-30.0 30.0)
  end
  begin
     id 16
     name head
     direction 0.0903589 0.994284 -0.056876  
     length 1.78268  
     axis 0 0 0   XYZ
    dof rx ry rz
    limits (-20.0 45.0)
           (-30.0 30.0)
           (-30.0 30.0)
  end
  begin
     id 17 
     name lclavicle
     direction 0.946008 0.242039 -0.215608  
     length 3.80783  
     axis 0 0 0   XYZ
    dof ry rz
    limits (-20.0 10.0)
           (0.0 20.0)
  end
  begin
     id 18 
     name lhumerus
     direction 1 -4.48991e-011 -2.25695e-027   
     length 4.83125   
     axis 180 -30 -90   XYZ
    dof rx ry rz
    limits (-60.0 90.0)
           (-90.0 90.0)
           (-90.0 90.0)
  end
  begin
     id 19
     name lradius
     direction 0.999991 0.00366712 -0.00211721   
     length 3.00391   
     axis 180 -30 -90   XYZ
    dof rx
    limits (-10.0 170.0)
  end
  begin
     id 20
     name lwrist
     direction 0.999991 0.00393016 -0.00141978   
     length 1.50195   
     axis -1.00488e-014 90 90   XYZ
    dof ry
    limits (-180.0 0.0)
 end
  begin
     id 21 
     name lhand
     direction 1 -4.49123e-011 2.72098e-026   
     length 1.2717   
     axis -1.73687e-014 90 90   XYZ
    dof rx rz
    limits (-90.0 90.0)
           (-45.0 45.0)
  end
  begin
     id 22 
     name lfingers
     direction 1 -4.48678e-011 5.4479e-026   
     length 1.02528   
     axis -3.47372e-014 90 90   XYZ
    dof rx
    limits (0.0 90.0)
  end
  begin
     id 23
     name lthumb
     direction 0.707107 -6.34851e-011 0.707107   
     length 1.4721   
     axis -90 45 -1.62303e-014   XYZ
    dof rx rz
    limits (-45.0 45.0)
           (-45.0 45.0)
  end
  begin
     id 24 
     name rclavicle
     direction -0.981723 0.189447 -0.0181673   
     length 3.74989  
     axis 0 0 0   XYZ 
    dof ry rz
    limits (-10.0 20.0)
           (-20.0 0.0)
  end
  begin
     id 25 
     name rhumerus
     direction -1 -4.48985e-011 2.38206e-027  
     length 4.61118   
     axis 180 30 90   XYZ
    dof rx ry rz
    limits (-90.0 60.0)
           (-90.0 90.0)
           (-90.0 90.0)
  end
  begin
     id 26 
     name rradius
     direction -1 -4.48977e-011 7.41019e-027   
     length 2.91491   
     axis 180 30 90   XYZ
    dof rx
    limits (-10.0 170.0)
  end
  begin
     id 27 
     name rwrist
     direction -1 -4.48549e-011 1.3624e-026   
     length 1.45745   
     axis -1.00488e-014 -90 -90   XYZ
    dof ry
    limits (-180.0 0.0)
  end
  begin
     id 28
     name rhand
     direction -1 -4.49107e-011 2.72109e-026   
     length 1.30769   
     axis -1.73687e-014 -90 -90   XYZ
    dof rx rz
    limits (-90.0 90.0)
           (-45.0 45.0)
  end
  begin
     id 29
     name rfingers
     direction -1 -4.48919e-011 5.44468e-026   
     length 1.05429   
     axis -3.47372e-014 -90 -90   XYZ
    dof rx
    limits (0.0 90.0)
  end
  begin
     id 30
     name rthumb
     direction -0.707107 -6.35315e-011 0.707107   
     length 1.51376   
     axis -90 -45 1.62303e-014   XYZ
    dof rx rz
    limits (-45.0 45.0)
           (-45.0 45.0)
  end
:hierarchy
  begin
    root lhipjoint rhipjoint lowerback
    lhipjoint lfemur
    lfemur ltibia
    ltibia lfoot
    lfoot ltoes
    rhipjoint rfemur
    rfemur rtibia
    rtibia rfoot
    rfoot rtoes
    lowerback upperback
    upperback thorax
    thorax lowerneck lclavicle rclavicle
    lowerneck upperneck
    upperneck head
    lclavicle lhumerus
    lhumerus lradius
    lradius lwrist
    lwrist lhand lthumb
    lhand lfingers
    rclavicle rhumerus
    rhumerus rradius
    rradius rwrist
    rwrist rhand rthumb
    rhand rfingers
  end

#!OML:ASF X:\für Bonn\!DataBase\2005_08_11_Bastian_Final\c3d\Bastian.ASF
:FULLY-SPECIFIED
:DEGREES
16
root 3.2569 16.7651 -1.87954 173.182 2.39323 -180.535
lowerback 12.1884 -7.39078 -1.03012
upperback 6.06516 -9.12152 1.92526
thorax 0.0846564 -4.29629 3.60954
lowerneck -13.0498 0.211889 3.62057
upperneck -5.29263 0.513227 3.71929
head 0.495594 0.556551 0.577534
rclavicle -1.08039e-013 2.46493e-014
rhumerus -11.7628 43.0549 -94.4241
rradius 113.765
rwrist 1.77278
rhand -22.8711 11.2752
rfingers 7.12502
rthumb 3.56756 -18.6746
lclavicle -1.08039e-013 2.46493e-014
lhumerus -30.3188 -31.3542 108.008
lradius 113.486
lwrist 40.7944
lhand -10.3467 -31.9746
lfingers 7.12502
lthumb 15.6498 -2.58754
rfemur -24.0589 0.593672 21.6332
rtibia 53.3846
rfoot -22.7653 -8.39395
rtoes -7.19207
lfemur 5.05221 2.13356 -16.5587
ltibia 34.4388
lfoot -27.5012 -3.1985
ltoes -21.1014
17
root 3.28336 16.7503 -1.93283 173.175 2.27605 -180.534
lowerback 12.1081 -7.50692 -0.960545
upperback 5.98216 -9.27714 1.98907
thorax 0.0509215 -4.37673 3.64931
lowerneck -13.2243 0.334277 3.72585
upperneck -5.07806 0.627668 3.50453
head 0.593976 0.609717 0.499833
rclavicle -4.56211e-014 8.74653e-015
rhumerus -10.16 43.3127 -93.7221
rradius 113.998
rwrist 1.22804
rhand -23.0288 11.2036
rfingers 7.12502
rthumb 3.41533 -18.7488
lclavicle -4.56211e-014 8.74653e-015
lhumerus -30.1829 -31.1545 107.882
lradius 113.561
lwrist 40.8254
lhand -10.4804 -32.0894
lfingers 7.12502
lthumb 15.521 -2.69239
rfemur -23.9384 0.125686 21.6961
rtibia 53.4758
rfoot -22.5904 -8.06441
rtoes -6.35123
lfemur 5.11042 2.12195 -16.4627
ltibia 34.6955
lfoot -27.4955 -2.97311
ltoes -22.6101
18
root 3.31066 16.7329 -1.98718 173.16 2.16167 -180.513
lowerback 12.0322 -7.63507 -0.908924
upperback 5.89898 -9.44828 2.0846
thorax 0.0244752 -4.46535 3.73298
lowerneck -13.3552 0.468318 3.793
upperneck -4.91298 0.768448 3.27698
head 0.670078 0.674624 0.425266
rclavicle -4.17448e-014 1.66979e-014
rhumerus -8.54433 43.6116 -92.9998
rradius 114.193
rwrist 0.724555
rhand -23.2091 11.1221
rfingers 7.12502
rthumb 3.24112 -18.833
lclavicle -4.17448e-014 1.66979e-014
lhumerus -30.0716 -30.8453 107.762
lradius 113.6
lwrist 40.919
lhand -10.5226 -32.1756
lfingers 7.12502
lthumb 15.4804 -2.77543
rfemur -23.8044 -0.271758 21.7811
rtibia 53.5919
rfoot -22.4211 -7.77028
rtoes -5.46228
lfemur 5.11695 2.11545 -16.3354
ltibia 35.0577
lfoot -27.4296 -2.80497
ltoes -23.7652
19
root 3.34015 16.715 -2.04397 173.089 1.9945 -180.488
lowerback 11.9887 -7.77031 -0.861389
upperback 5.82917 -9.62507 2.17866
thorax -0.00396536 -4.55519 3.82106
lowerneck -13.5126 0.584532 3.82423
upperneck -4.70703 0.886177 3.07285
head 0.764596 0.729082 0.363423
rclavicle -9.08446e-014 2.38542e-015
rhumerus -6.91934 43.8412 -92.243
rradius 114.414
rwrist 0.290175
rhand -23.3294 10.9058
rfingers 7.12502
rthumb 3.125 -19.051
lclavicle -9.08446e-014 2.38542e-015
lhumerus -30.0363 -30.4643 107.667
lradius 113.585
lwrist 41.1178
lhand -10.4003 -32.2387
lfingers 7.12502
lthumb 15.5981 -2.84766
rfemur -23.5838 -0.68433 21.8729
rtibia 53.7265
rfoot -22.2831 -7.54365
rtoes -5.10719
lfemur 5.11784 2.13239 -16.1768
ltibia 35.5406
lfoot -27.256 -2.70498
ltoes -25.0054
20
root 3.37132 16.6978 -2.10262 173.01 1.78291 -180.422
lowerback 11.9136 -7.91109 -0.749771
upperback 5.77741 -9.80194 2.24929
thorax -0.0116284 -4.64292 3.84541
lowerneck -13.6764 0.686974 3.90704
upperneck -4.51508 0.982168 2.87927
head 0.856351 0.772908 0.29532
rclavicle 1.80894e-014 3.97569e-015
rhumerus -5.29446 44.0038 -91.5296
rradius 114.63
rwrist -0.129437
rhand -23.4498 10.624
rfingers 7.12502
rthumb 3.00868 -19.3345
lclavicle 1.80894e-014 3.97569e-015
lhumerus -30.1052 -30.0684 107.551
lradius 113.566
lwrist 41.3291
lhand -10.2512 -32.1518
lfingers 7.12502
lthumb 15.7417 -2.77199
rfemur -23.3213 -1.0889 22.0027
rtibia 53.8442
rfoot -22.1442 -7.30928
rtoes -4.81728
lfemur 5.01719 2.17251 -15.9449
ltibia 36.2074
lfoot -26.9571 -2.71789
ltoes -26.0987
21
root 3.40507 16.6833 -2.16294 172.875 1.54254 -180.352
lowerback 11.8845 -8.0585 -0.684073
upperback 5.73724 -9.98637 2.34954
thorax -0.0174963 -4.73398 3.93031
lowerneck -13.851 0.787649 3.96319
upperneck -4.30728 1.07591 2.62663
head 0.956246 0.813422 0.213116
rclavicle 2.74323e-014 5.56597e-015
rhumerus -3.68544 44.1862 -90.7507
rradius 114.869
rwrist -0.503796
rhand -23.639 10.2857
rfingers 7.12502
rthumb 2.826 -19.6753
lclavicle 2.74323e-014 5.56597e-015
lhumerus -30.235 -29.6796 107.397
lradius 113.509
lwrist 41.674
lhand -10.0485 -32.1238
lfingers 7.12502
lthumb 15.9369 -2.75953
rfemur -22.9663 -1.49556 22.1408
rtibia 53.9301
rfoot -21.9722 -7.12474
rtoes -4.5571
lfemur 4.85537 2.2209 -15.6865
ltibia 37.1
lfoot -26.5046 -2.68211
ltoes -27.335
22
root 3.43971 16.6717 -2.22454 172.729 1.30987 -180.286
lowerback 11.8458 -8.18786 -0.598589
upperback 5.69572 -10.1471 2.42194
thorax -0.0300356 -4.81274 3.9728
lowerneck -13.991 0.861289 4.00621
upperneck -4.10185 1.13827 2.42861
head 1.0497 0.838908 0.148398
rclavicle 3.91606e-014 4.53229e-014
rhumerus -2.15685 44.2538 -90.0575
rradius 115.096
rwrist -0.816432
rhand -23.7586 9.94544
rfingers 7.12502
rthumb 2.71046 -20.0171
lclavicle 3.91606e-014 4.53229e-014
lhumerus -30.5821 -29.4559 107.145
lradius 113.514
lwrist 42.113
lhand -9.96792 -32.0716
lfingers 7.12502
lthumb 16.0145 -2.71349
rfemur -22.5541 -1.88546 22.2688
rtibia 53.9599
rfoot -21.8451 -6.90194
rtoes -3.95694
lfemur 4.55514 2.32531 -15.4159
ltibia 38.2879
lfoot -26.0039 -2.54238
ltoes -28.7224
23
root 3.47519 16.6654 -2.2861 172.547 1.0681 -180.213
lowerback 11.838 -8.30737 -0.496455
upperback 5.67093 -10.2889 2.48755
thorax -0.0471016 -4.87996 4.00098
lowerneck -14.1936 0.914793 4.02236
upperneck -3.85822 1.17424 2.25282
head 1.16661 0.853121 0.0942932
rclavicle -1.49089e-014 -2.46493e-014
rhumerus -0.601274 44.2709 -89.325
rradius 115.342
rwrist -1.11311
rhand -23.8832 9.54155
rfingers 7.12502
rthumb 2.5902 -20.4225
lclavicle -1.49089e-014 -2.46493e-014
lhumerus -30.9458 -29.2544 106.863
lradius 113.419
lwrist 42.6208
lhand -9.8082 -31.9754
lfingers 7.12502
lthumb 16.1683 -2.62968
rfemur -22.0713 -2.24984 22.4047
rtibia 53.931
rfoot -21.7251 -6.72176
rtoes -3.55406
lfemur 4.08028 2.45543 -15.1249
ltibia 39.8253
lfoot -25.4484 -2.29515
ltoes -30.4472
24
root 3.51062 16.6637 -2.34692 172.318 0.900471 -180.123
lowerback 11.9101 -8.40416 -0.392005
upperback 5.64749 -10.3952 2.55987
thorax -0.107178 -4.92735 4.04343
lowerneck -14.3115 0.972149 4.08872
upperneck -3.67244 1.21529 2.0236
head 1.25119 0.865772 0.0141114
rclavicle 5.42682e-014 -2.94201e-014
rhumerus 0.92419 44.2992 -88.619
rradius 115.616
rwrist -1.43572
rhand -23.9614 9.11279
rfingers 7.12502
rthumb 2.51465 -20.8521
lclavicle 5.42682e-014 -2.94201e-014
lhumerus -31.3631 -29.013 106.606
lradius 113.225
lwrist 43.1578
lhand -9.61104 -31.8048
lfingers 7.12502
lthumb 16.3582 -2.47463
rfemur -21.5074 -2.53488 22.5587
rtibia 53.8393
rfoot -21.6519 -6.48924
rtoes -3.17929
lfemur 3.40499 2.66641 -14.8002
ltibia 41.7575
lfoot -24.7698 -1.95014
ltoes -32.2965
25
root 3.54473 16.6648 -2.40564 172.104 0.779546 -180.052
lowerback 11.9853 -8.47157 -0.271007
upperback 5.61856 -10.4625 2.61239
thorax -0.184499 -4.95499 4.05454
lowerneck -14.4363 1.03003 4.26688
upperneck -3.47097 1.23933 1.71714
head 1.344 0.86655 -0.110718
rclavicle -1.18674e-013 6.75868e-014
rhumerus 2.46728 44.2605 -87.9056
rradius 115.864
rwrist -1.76581
rhand -24.0582 8.75216
rfingers 7.12502
rthumb 2.42111 -21.2139
lclavicle -1.18674e-013 6.75868e-014
lhumerus -31.8725 -28.8146 106.364
lradius 112.954
lwrist 43.6965
lhand -9.44189 -31.6057
lfingers 7.12502
lthumb 16.521 -2.28908
rfemur -20.9499 -2.80678 22.6947
rtibia 53.7008
rfoot -21.5599 -6.27019
rtoes -2.92142
lfemur 2.46597 2.9133 -14.4968
ltibia 44.0963
lfoot -23.8003 -1.64365
ltoes -33.3782
26
root 3.57843 16.6667 -2.46213 171.852 0.699361 -179.958
lowerback 12.1483 -8.51336 -0.140308
upperback 5.56292 -10.4906 2.68583
thorax -0.337169 -4.96147 4.09403
lowerneck -14.4776 1.08154 4.45632
upperneck -3.2608 1.25354 1.37222
head 1.42642 0.858479 -0.251357
rclavicle 2.72335e-014 -1.59028e-014
rhumerus 3.92261 44.1984 -87.2065
rradius 116.151
rwrist -2.08091
rhand -24.1092 8.377
rfingers 7.12502
rthumb 2.37191 -21.5896
lclavicle 2.72335e-014 -1.59028e-014
lhumerus -32.492 -28.5815 106.177
lradius 112.572
lwrist 44.2123
lhand -9.20636 -31.4112
lfingers 7.12502
lthumb 16.7478 -2.11356
rfemur -20.3477 -3.0439 22.854
rtibia 53.5113
rfoot -21.4478 -6.00239
rtoes -2.38693
lfemur 1.36794 3.23184 -14.1342
ltibia 46.8261
lfoot -22.5062 -1.52985
ltoes -34.1214
27
root 3.61335 16.6716 -2.51889 171.584 0.614752 -179.881
lowerback 12.3233 -8.52592 -0.0276321
upperback 5.50478 -10.4815 2.75038
thorax -0.499977 -4.94973 4.13225
lowerneck -14.4701 1.10654 4.67536
upperneck -3.07422 1.23251 1.00756
head 1.493 0.831109 -0.406354
rclavicle -1.66383e-013 4.37326e-014
rhumerus 5.31263 44.0803 -86.5354
rradius 116.443
rwrist -2.41382
rhand -24.184 8.05069
rfingers 7.12502
rthumb 2.29961 -21.9167
lclavicle -1.66383e-013 4.37326e-014
lhumerus -33.1953 -28.4167 106.033
lradius 112.102
lwrist 44.6311
lhand -9.01249 -31.1982
lfingers 7.12502
lthumb 16.9344 -1.91644
rfemur -19.709 -3.28529 22.9992
rtibia 53.2683
rfoot -21.3213 -5.78741
rtoes -1.93226
lfemur 0.0716404 3.60281 -13.7601
ltibia 49.9084
lfoot -20.9051 -1.52757
ltoes -34.905
28
root 3.64918 16.681 -2.57571 171.293 0.531877 -179.791
lowerback 12.5242 -8.53062 0.0671601
upperback 5.45015 -10.4593 2.83732
thorax -0.666007 -4.93084 4.20481
lowerneck -14.4617 1.13351 4.89439
upperneck -2.86343 1.21312 0.597317
head 1.56864 0.802564 -0.576763
rclavicle 5.26779e-014 -1.98785e-014
rhumerus 6.70296 43.9718 -85.7983
rradius 116.68
rwrist -2.69267
rhand -24.3071 7.80635
rfingers 7.12502
rthumb 2.18075 -22.1622
lclavicle 5.26779e-014 -1.98785e-014
lhumerus -33.9114 -28.1967 105.902
lradius 111.545
lwrist 44.9642
lhand -8.8497 -30.9923
lfingers 7.12502
lthumb 17.0911 -1.72407
rfemur -19.0115 -3.54169 23.1486
rtibia 52.9571
rfoot -21.1794 -5.54314
rtoes -1.36683
lfemur -1.41227 3.93295 -13.387
ltibia 53.2951
lfoot -18.917 -1.57709
ltoes -35.7849
29
root 3.68589 16.6953 -2.63221 170.975 0.437992 -179.713
lowerback 12.7595 -8.51731 0.136941
upperback 5.38975 -10.4136 2.92627
thorax -0.853043 -4.9001 4.2956
lowerneck -14.4155 1.12713 5.05129
upperneck -2.65175 1.16112 0.225347
head 1.63663 0.758472 -0.727109
rclavicle 4.23411e-014 -6.91771e-014
rhumerus 8.06314 43.8821 -85.0148
rradius 116.848
rwrist -3.02174
rhand -24.5549 7.65252
rfingers 7.12502
rthumb 1.94148 -22.3184
lclavicle 4.23411e-014 -6.91771e-014
lhumerus -34.7032 -28.0021 105.81
lradius 110.876
lwrist 45.1096
lhand -8.71063 -30.8796
lfingers 7.12502
lthumb 17.225 -1.623
rfemur -18.2419 -3.77607 23.2851
rtibia 52.5809
rfoot -21.0491 -5.32621
rtoes -0.728831
lfemur -3.10968 4.25243 -13.0244
ltibia 56.9386
lfoot -16.3188 -1.72477
ltoes -35.8329
